<svg xmlns="http://www.w3.org/2000/svg" viewBox="0 0 1099.76 1058.93">
  <title>AM 123</title>
  <g id="M">
    <g>
      <polygon points="564.85 962.29 658.46 842.82 669.65 973.18 564.85 962.29" style="fill: #0da084"/>
      <polygon points="501.56 172.18 412.41 209.61 522.66 446.44 501.56 172.18" style="fill: #0d957b"/>
      <polygon points="565.53 961.61 476.38 1000.4 581.18 1011.29 565.53 961.61" style="fill: #094138"/>
      <polygon points="669.65 973.18 581.18 1011.29 564.85 962.29 669.65 973.18" style="fill: #094138"/>
      <polygon points="690.07 1023.54 778.54 985.43 885.39 997 690.07 1023.54" style="fill: #0d5f52"/>
      <polygon points="907.85 1046.68 996.32 1009.93 1099.76 1020.82 907.85 1046.68" style="fill: #094138"/>
      <polygon points="797.6 1035.79 885.39 997 689.66 1023.41 797.6 1035.79" style="fill: #0d5f52"/>
      <polygon points="1011.29 1058.93 1099.76 1020.82 907.85 1046.68 1011.29 1058.93" style="fill: #094138"/>
      <polygon points="944.6 387.91 960.15 566.92 912.61 712.53 944.6 387.91" style="fill: #1b6f5f"/>
      <polygon points="907.85 1046.68 895.6 901.04 916.69 681.22 907.85 1046.68" style="fill: #0d5f52"/>
      <polygon points="945.09 1031.2 907.85 1046.68 916.01 688.71 945.09 1031.2" style="fill: #1b6456"/>
      <polygon points="690.07 1023.54 666.25 934.39 645.91 698.24 690.07 1023.54" style="fill: #0d5f52"/>
      <polygon points="726.43 1007.88 644.48 682.59 690.07 1023.54 726.43 1007.88" style="fill: #1b6456"/>
      <polygon points="960.25 566.89 975.22 737.03 916.01 688.71 960.25 566.89" style="fill: #0d6153"/>
      <polygon points="996.32 1009.93 928.94 847.28 945.27 1032.38 996.32 1009.93" style="fill: #1b6b5c"/>
      <polygon points="973.86 732.95 930.98 856.12 996.32 1009.93 973.86 732.95" style="fill: #1b6456"/>
      <polygon points="916.01 688.71 930.3 859.53 973.86 735.67 916.01 688.71" style="fill: #0d6153"/>
      <polygon points="617.93 352.52 686.17 252.32 668.29 190.55 617.93 352.52" style="fill: #0dceae"/>
      <polygon points="778.54 250.44 867.01 212.33 769.7 337.69 778.54 250.44" style="fill: #127562"/>
      <polygon points="751.32 509.05 787.39 509.73 779.22 613.17 751.32 509.05" style="fill: #1b6b5c"/>
      <polygon points="811.89 743.83 778.67 612.02 839.11 498.84 811.89 743.83" style="fill: #0d5f52"/>
      <polygon points="787.39 511.09 836.39 507 778.54 612.49 787.39 511.09" style="fill: #1b6456"/>
      <polygon points="984.56 868.37 996.32 1009.93 1099.76 1020.82 984.56 868.37" style="fill: #0db99a"/>
      <polygon points="943.91 389.95 1034.43 230.02 1052.8 455.28 943.91 389.95" style="fill: #0bdebc"/>
      <polygon points="954.88 512.45 1052.12 453.24 943.23 389.27 954.88 512.45" style="fill: #0cd5b4"/>
      <polygon points="967.05 643.11 1053.48 451.88 954.8 512.45 967.05 643.11" style="fill: #0dd1b0"/>
      <polygon points="1093.12 937.6 1099.76 1020.82 984.07 868.37 1093.12 937.6" style="fill: #0dc2a3"/>
      <polygon points="1080.19 780.06 984.07 868.37 1092.95 937.79 1080.19 780.06" style="fill: #0dc8a8"/>
      <polygon points="978.71 801.76 1080.7 779.9 984.07 868.37 978.71 801.76" style="fill: #17c1a0"/>
      <polygon points="1053.48 451.88 979.3 807.81 967.05 641.75 1053.48 451.88" style="fill: #0dceae"/>
      <polygon points="1080.7 779.9 978.62 801.68 1052.8 453.92 1080.7 779.9" style="fill: #0bd3ac"/>
      <polygon points="944.6 387.91 837.07 509.05 932.61 516.01 944.6 387.91" style="fill: #0dd1b0"/>
      <polygon points="866.33 213.01 849.94 374.05 943.91 388.59 866.33 213.01" style="fill: #0cd3b3"/>
      <polygon points="836.39 513.81 944.6 387.91 849.32 374.3 836.39 513.81" style="fill: #0dccac"/>
      <polygon points="476.38 1000.4 557.66 869.87 565.53 962.97 476.38 1000.4" style="fill: #0f6050"/>
      <polygon points="476.38 1000.4 465.61 864.29 557.66 869.87 476.38 1000.4" style="fill: #0e6655"/>
      <polygon points="787.39 511.09 866.33 211.65 837.75 509.73 787.39 511.09" style="fill: #1b6b5c"/>
      <polygon points="769.01 337.55 751.32 509.05 867.01 212.33 769.01 337.55" style="fill: #1b6f5f"/>
      <polygon points="788.07 510.41 866.33 213.2 751.32 509.05 788.07 510.41" style="fill: #1a7463"/>
      <polygon points="645.16 690.07 694.2 651.96 617.93 352.52 645.16 690.07" style="fill: #1b6f5f"/>
      <polygon points="646.52 690.07 778.54 985.43 726.82 1009.93 646.52 690.07" style="fill: #1b6b5c"/>
      <polygon points="692.8 646.51 778.55 985.42 645.16 688.71 692.8 646.51" style="fill: #1a7463"/>
      <polygon points="656.73 502.92 685.99 250.44 617.93 352.52 656.73 502.92" style="fill: #0dc4a5"/>
      <polygon points="740.19 465.68 685.99 250.44 656.04 492.71 740.19 465.68" style="fill: #0dccac"/>
      <polygon points="694.15 651.96 740.43 465.49 654 493.39 694.15 651.96" style="fill: #0dc3a4"/>
      <polygon points="694.15 651.96 782.05 625.68 740.43 465.49 694.15 651.96" style="fill: #18ba9f"/>
      <polygon points="885.39 997 907.16 784.67 766.97 724.78 885.39 997" style="fill: #0db597"/>
      <polygon points="811.89 743.83 907.16 794.2 915.33 688.03 811.89 743.83" style="fill: #0dc2a3"/>
      <polygon points="817.56 693.32 913.97 696.2 811.89 743.83 817.56 693.32" style="fill: #0dd1b0"/>
      <polygon points="918.84 647.52 817.56 693.32 913.97 696.2 918.84 647.52" style="fill: #0dc8a9"/>
      <polygon points="951.3 221.34 943.91 391.31 1034.43 230.02 951.3 221.34" style="fill: #0be3c1"/>
      <polygon points="867.01 212.33 943.91 391.31 951.4 221.86 867.01 212.33" style="fill: #0be1bf"/>
      <polygon points="829.85 586.23 918.84 647.52 817.56 693.32 829.85 586.23" style="fill: #0dc3a4"/>
      <polygon points="829.85 586.23 932.46 515 918.84 647.52 829.85 586.23" style="fill: #0dccac"/>
      <polygon points="837.07 509.05 932.61 516.01 829.85 586.23 837.07 509.05" style="fill: #0dc5a5"/>
      <polygon points="668.29 190.55 590.71 182.39 618.78 357.9 668.29 190.55" style="fill: #0dceae"/>
      <polygon points="501.56 172.18 590.71 182.39 618.61 353.2 501.56 172.18" style="fill: #0be0be"/>
      <polygon points="618.61 353.2 501.56 172.18 513.81 330.06 618.61 353.2" style="fill: #0dd1b0"/>
      <polygon points="558.73 882.66 658.46 842.82 564.85 962.29 558.73 882.66" style="fill: #0da084"/>
      <polygon points="548.3 754.31 658.77 842.51 558.73 888.11 548.3 754.31" style="fill: #0da084"/>
      <polygon points="640.39 625.42 577.36 777.51 658.77 842.51 640.39 625.42" style="fill: #0da084"/>
      <polygon points="542.81 687.35 547.84 757.45 577.78 777.86 542.81 687.35" style="fill: #0da084"/>
      <polygon points="639.71 627.46 541.02 682.17 577.78 777.86 639.71 627.46" style="fill: #0da084"/>
      <polygon points="522.66 446.44 617.93 351.16 513.81 328.7 522.66 446.44" style="fill: #0dc5a5"/>
      <polygon points="590.71 654.68 618.78 357.9 640.39 628.14 590.71 654.68" style="fill: #0db698"/>
      <polygon points="522.66 446.44 608.99 476.27 619.98 347.76 522.66 446.44" style="fill: #0dc4a5"/>
      <polygon points="541.71 681.9 608.41 476.38 590.71 654.68 541.71 681.9" style="fill: #0db698"/>
      <path d="M931,455.83s6.25,83.32,7.89,83.86,77.86-53.92,77.86-53.92Z" transform="translate(-409 -10.07)" style="fill: #0db99a"/>
      <polygon points="542.39 681.22 608.41 476.38 529.46 529.46 542.39 681.22" style="fill: #0db496"/>
      <polygon points="503.6 867.01 548.52 751.32 557.66 869.87 503.6 867.01" style="fill: #116b5a"/>
      <polygon points="465.49 865.65 504.29 866.63 456.64 752 465.49 865.65" style="fill: #0c6d5b"/>
      <polygon points="458.01 760.17 548.52 754.04 504.28 866.33 458.01 760.17" style="fill: #0d725f"/>
      <polygon points="529.46 529.46 496.8 758.13 548.52 754.04 529.46 529.46" style="fill: #0e705d"/>
      <polygon points="413.09 210.29 493.39 383.15 436.07 502.66 413.09 210.29" style="fill: #0d866e"/>
      <polygon points="434.87 487.95 522.66 446.44 487.79 371.52 434.87 487.95" style="fill: #0d846d"/>
      <polygon points="529.46 529.46 434.87 487.95 522.66 446.44 529.46 529.46" style="fill: #0d7562"/>
      <polygon points="457.32 760.85 529.46 529.46 496.8 758.13 457.32 760.85" style="fill: #127562"/>
      <polygon points="434.87 487.95 444.28 604.32 529.46 529.46 434.87 487.95" style="fill: #0d725f"/>
      <polygon points="457.32 760.85 443.71 604.32 530.14 528.78 457.32 760.85" style="fill: #0d725f"/>
      <polygon points="693.47 651.28 746.56 859.53 781.95 625.42 693.47 651.28" style="fill: #0dceae"/>
      <polygon points="885.39 997 749.24 859.53 844.55 855.44 885.39 997" style="fill: #0dccac"/>
      <path d="M1253.55,865.52" transform="translate(-409 -10.07)" style="fill: #0db597"/>
      <polygon points="746.56 859.53 766.97 724.78 844.69 855.44 746.56 859.53" style="fill: #0dc2a3"/>
      <polygon points="844.55 855.44 907.16 794.2 885.39 997 844.55 855.44" style="fill: #0dc4a5"/>
      <polygon points="781.95 625.42 766.97 724.78 811.89 743.83 781.95 625.42" style="fill: #0dc2a3"/>
      <polygon points="745.2 855.44 885.39 997 777.86 986.11 745.2 855.44" style="fill: #0db395"/>
    </g>
  </g>
  <g id="A">
    <g>
      <polygon points="578.46 858.85 673.74 862.93 619.98 560.09 578.46 858.85" style="fill: #0e6b59"/>
      <polygon points="513.81 497.48 578.46 858.85 622.16 573.07 513.81 497.48" style="fill: #0d6856"/>
      <polygon points="592.18 402.75 515.17 498.84 622.02 573.02 592.18 402.75" style="fill: #0d725f"/>
      <polygon points="571.69 286.34 515.85 498.16 592.07 402.88 571.69 286.34" style="fill: #0d725f"/>
      <polygon points="431.46 16.33 525.38 20.42 504.96 125.22 431.46 16.33" style="fill: #0cb799"/>
      <polygon points="555.1 192.1 504.96 125.22 525.38 20.42 555.1 192.1" style="fill: #0d9077"/>
      <polygon points="431.46 16.33 555.32 191.91 462.5 196.85 431.46 16.33" style="fill: #0da084"/>
      <polygon points="487.27 326.66 555.32 191.91 462.09 193.96 487.27 326.66" style="fill: #0d856e"/>
      <polygon points="542.39 398.12 555.32 191.91 571.66 285.83 542.39 398.12" style="fill: #0d7763"/>
      <polygon points="487.27 326.66 547.84 377.7 515.17 501.56 487.27 326.66" style="fill: #0d7562"/>
      <polygon points="555.32 191.91 544.43 375.66 487.27 326.66 555.32 191.91" style="fill: #0d7965"/>
      <polygon points="307.61 0 431.46 16.33 348.44 197.36 307.61 0" style="fill: #0aeac7"/>
      <polygon points="407.65 3.4 430.79 16.68 307.61 0 407.65 3.4" style="fill: #107464"/>
      <polygon points="525.38 20.42 402.88 2.72 426.7 15.65 525.38 20.42" style="fill: #107464"/>
      <polygon points="359.85 270.4 431.46 16.33 348.44 197.36 359.85 270.4" style="fill: #0dd2b1"/>
      <polygon points="487.27 326.66 360.01 271.54 462.77 197.36 487.27 326.66" style="fill: #0dc4a5"/>
      <polygon points="431.46 16.33 462.77 197.36 359.33 272.22 431.46 16.33" style="fill: #0dd1b0"/>
      <polygon points="204.74 259.29 348.44 197.36 307.61 0 204.74 259.29" style="fill: #0be0be"/>
      <polygon points="239.55 485.91 153.56 388.73 348.44 197.36 239.55 485.91" style="fill: #0dd0b0"/>
      <polygon points="204.16 259.97 153.8 389.27 348.44 197.36 204.16 259.97" style="fill: #0cd7b6"/>
      <polygon points="123.86 794.88 79.25 576.65 0 778.54 123.86 794.88" style="fill: #10b595"/>
      <polygon points="239.55 485.91 189.19 617.93 153.8 389.27 239.55 485.91" style="fill: #0dc9aa"/>
      <polygon points="78.94 577.1 189.19 617.93 153.8 389.27 78.94 577.1" style="fill: #0dceae"/>
      <polygon points="123.86 794.88 189.19 617.93 78.94 577.1 123.86 794.88" style="fill: #0dbe9f"/>
      <polygon points="312.23 293.31 349.12 193.96 365.45 305.56 312.23 293.31" style="fill: #1b6f5f"/>
      <polygon points="330.06 489.31 355.92 502.92 396.08 498.16 330.06 489.31" style="fill: #116d5b"/>
      <polygon points="397.44 509.05 396.08 498.16 351.16 502.24 397.44 509.05" style="fill: #136858"/>
      <polygon points="237.51 485.23 331.23 489.63 355.92 502.92 237.51 485.23" style="fill: #106353"/>
      <polygon points="377.02 375.66 311.69 292.63 364.77 300.8 377.02 375.66" style="fill: #1a7463"/>
      <polygon points="240.23 485.23 377.02 375.66 333.64 489.78 240.23 485.23" style="fill: #1b6456"/>
      <polygon points="311.69 292.63 239.55 485.91 377.02 375.66 311.69 292.63" style="fill: #1b6b5c"/>
      <polygon points="189.19 617.93 249.57 712.59 280.38 630.18 189.19 617.93" style="fill: #1b6456"/>
      <polygon points="217.77 798.96 210.02 650.59 252.48 704.36 217.77 798.96" style="fill: #1b6456"/>
      <polygon points="123.86 794.88 213.26 712.59 217.77 798.96 123.86 794.88" style="fill: #1b6456"/>
      <polygon points="189.19 617.93 210.29 649.92 123.86 794.88 189.19 617.93" style="fill: #1b6456"/>
      <polygon points="213.69 713.21 210.29 648.56 123.86 794.88 213.69 713.21" style="fill: #1b6456"/>
      <polygon points="487.27 326.66 386.65 441.13 359.85 270.4 487.27 326.66" style="fill: #0dbc9d"/>
      <polygon points="397.44 509.05 487.27 326.66 386.55 440.99 397.44 509.05" style="fill: #0db395"/>
      <polygon points="515.17 502.92 397.44 509.05 487.27 326.66 515.17 502.92" style="fill: #0daa8d"/>
      <polygon points="238.87 485.23 285.15 630.86 188.51 618.61 238.87 485.23" style="fill: #0dbd9e"/>
      <polygon points="238.87 485.23 301.48 494.75 280.38 630.18 238.87 485.23" style="fill: #0db99b"/>
      <polygon points="397.44 509.05 280.38 630.18 296.72 494.07 397.44 509.05" style="fill: #0db194"/>
      <polygon points="423.3 650.6 397.44 509.05 280.38 630.18 423.3 650.6" style="fill: #0da589"/>
      <polygon points="515.85 502.24 432.14 709.81 397.44 509.05 515.85 502.24" style="fill: #0da084"/>
      <polygon points="451.88 841.15 494.07 685.99 578.46 858.85 451.88 841.15" style="fill: #118e76"/>
      <polygon points="515.85 502.24 494.07 685.99 578.46 858.85 515.85 502.24" style="fill: #14967d"/>
      <polygon points="431.46 707.77 451.88 841.15 494.07 685.99 431.46 707.77" style="fill: #14967d"/>
      <polygon points="515.85 502.24 431.46 707.77 494.07 685.99 515.85 502.24" style="fill: #0d9b80"/>
    </g>
  </g>
</svg>
